<?xml version="1.0" encoding="UTF-8" standalone="no"?>
<svg
   xmlns:dc="http://purl.org/dc/elements/1.1/"
   xmlns:cc="http://creativecommons.org/ns#"
   xmlns:rdf="http://www.w3.org/1999/02/22-rdf-syntax-ns#"
   xmlns:svg="http://www.w3.org/2000/svg"
   xmlns="http://www.w3.org/2000/svg"
   x="0px" y="0px"
   viewBox="0 0 142 142"
   style="enable-background:new 0 0 142 142;" xml:space="preserve"
   version="1.1"
   id="svg849">
  <defs
     id="defs843" />
  <metadata
     id="metadata846">
    <rdf:RDF>
      <cc:Work
         rdf:about="">
        <dc:format>image/svg+xml</dc:format>
        <dc:type
           rdf:resource="http://purl.org/dc/dcmitype/StillImage" />
        <dc:title />
      </cc:Work>
    </rdf:RDF>
  </metadata>
  <g
     transform="translate(-49,-115.99999)"
     style="display:inline"
     id="layer2">
    <g
       id="g1964">
      <path
         id="path5177-8"
         d="m 50,156.99999 c 6.666675,13.33333 13.333316,26.66668 20,40 6.296296,-15.74072 12.592581,-31.48144 18.88887,-47.22216 0.157491,-0.39373 1.851753,-0.92628 2.222079,-4.5e-4 0.370324,0.92581 17.462941,43.65734 17.777921,44.4448 0.7017,1.75425 1.45699,1.74024 2.02008,0.051 0.2607,-0.7821 7.92106,-23.76318 8.18177,-24.54533 0.56328,-1.68983 1.17645,-1.65917 1.62344,0.12881 0.20358,0.81433 8.36789,33.47156 8.57138,34.28553 0.44718,1.78869 1.20318,1.8804 1.96453,0.35769 0.3625,-0.72501 7.1379,-14.27581 7.50055,-15.0011 0,0 1.7381,-1.52133 2.49945,10e-4 0.3625,0.72501 7.1379,14.27581 7.50055,15.0011 0,0 1.53941,1.48365 2.04962,-0.30208 0.22564,-0.78973 18.17411,-63.60939 18.3997,-64.39896 0.5101,-1.78533 1.13628,-1.79153 1.73755,0.0123 L 190,197.00003 V 116.99999 H 50 Z"
         style="display:inline;fill:#7fe2ff;fill-opacity:1;fill-rule:evenodd;stroke:none;stroke-width:0;stroke-linecap:round;stroke-linejoin:round;stroke-miterlimit:4;stroke-dasharray:none;stroke-opacity:1" />
      <circle
         style="display:inline;fill:#f4ff95;fill-opacity:1;stroke:#000000;stroke-width:0.77322608;stroke-linecap:round;stroke-linejoin:round;stroke-miterlimit:4;stroke-dasharray:none;stroke-opacity:1;paint-order:fill markers stroke"
         id="path892"
         cx="100.37406"
         cy="156.05249"
         r="11.486082" />
      <path
         id="path5177-5"
         d="m 50,156.99999 c 6.666675,13.33333 13.333316,26.66668 20,40 6.296293,-15.74072 12.592594,-31.48143 18.88887,-47.22216 0.15749,-0.39373 1.85175,-0.92628 2.22208,-4.5e-4 0.37032,0.92581 17.46294,43.65734 17.77792,44.4448 0.7017,1.75425 1.45699,1.74024 2.02008,0.051 0.2607,-0.7821 7.92106,-23.76318 8.18177,-24.54533 0.56328,-1.68983 1.17645,-1.65917 1.62344,0.12881 0.20358,0.81433 8.36789,33.47156 8.57138,34.28553 0.44718,1.78869 1.20318,1.8804 1.96453,0.35769 0.3625,-0.72501 7.1379,-14.27581 7.50055,-15.0011 0,0 1.7381,-1.52133 2.49945,10e-4 0.3625,0.72501 7.1379,14.27581 7.50055,15.0011 0,0 1.53941,1.48365 2.04962,-0.30208 0.22564,-0.78973 18.17411,-63.60939 18.3997,-64.39896 0.5101,-1.78533 1.13628,-1.79153 1.73755,0.0123 L 190,197.00003 v 59.99996 H 50 Z"
         style="display:inline;fill:#acff95;fill-opacity:1;fill-rule:evenodd;stroke:none;stroke-width:1;stroke-linecap:round;stroke-linejoin:round;stroke-miterlimit:4;stroke-dasharray:none;stroke-opacity:1" />
      <path
         id="path5177-1"
         d="m 76.547823,180.59673 12.341047,-30.8189 c 0.157491,-0.39373 1.851748,-0.92628 2.222079,-4.5e-4 l 10.902211,27.19731 z m 37.445757,4.51759 5.09714,-15.38647 c 0.56014,-1.69087 1.17645,-1.65917 1.62344,0.12881 l 4.28815,17.14333 z m 41.68962,1.88567 13.51674,-47.20015 c 0.5101,-1.78533 1.13628,-1.79153 1.73755,0.0123 l 15.07993,45.19742 z"
         style="display:inline;fill:#ebebeb;fill-opacity:1;fill-rule:evenodd;stroke:none;stroke-width:1;stroke-linecap:round;stroke-linejoin:round;stroke-miterlimit:4;stroke-dasharray:none;stroke-opacity:1" />
      <path
         id="path923"
         style="fill:none;fill-rule:evenodd;stroke:#000000;stroke-width:1;stroke-linecap:round;stroke-linejoin:round;stroke-miterlimit:4;stroke-dasharray:none;stroke-opacity:1"
         d="m 155.6832,186.99999 30.33422,-1.99043 m -72.02384,0.10476 11.00873,1.88567 m -48.454487,-6.40326 25.465337,-3.62204" />
      <path
         style="display:inline;fill:none;fill-rule:evenodd;stroke:#000000;stroke-width:1;stroke-linecap:round;stroke-linejoin:round;stroke-miterlimit:4;stroke-dasharray:none;stroke-opacity:1"
         d="M 59.999998,176.99999 90,236.99999"
         id="path896" />
      <path
         id="path5177"
         d="m 50,156.99999 c 6.666687,13.33332 13.333299,26.66668 20,40 6.296295,-15.74072 12.592581,-31.48144 18.888869,-47.22216 0.157492,-0.39373 1.851753,-0.92628 2.222079,-4.6e-4 0.370326,0.92581 17.462942,43.65734 17.777922,44.4448 0.7017,1.75425 1.45699,1.74024 2.02008,0.051 0.2607,-0.7821 7.92106,-23.76318 8.18177,-24.54533 0.56328,-1.68983 1.17645,-1.65917 1.62344,0.12881 0.20358,0.81433 8.36789,33.47156 8.57138,34.28553 0.44718,1.78869 1.20318,1.8804 1.96453,0.35769 0.3625,-0.72501 7.1379,-14.27581 7.50055,-15.0011 0,0 1.7381,-1.52133 2.49945,0.001 0.3625,0.72501 7.1379,14.27581 7.50055,15.0011 0,0 1.53941,1.48365 2.04962,-0.30208 0.22564,-0.78973 18.17411,-63.60939 18.3997,-64.39896 0.5101,-1.78533 1.13628,-1.79153 1.73755,0.0123 L 190,196.99999"
         style="display:inline;fill:none;fill-opacity:0.37735853;fill-rule:evenodd;stroke:#000000;stroke-width:1;stroke-linecap:round;stroke-linejoin:round;stroke-miterlimit:4;stroke-dasharray:none;stroke-opacity:1" />
      <path
         style="fill:none;fill-opacity:0.37735853;fill-rule:evenodd;stroke:#000000;stroke-width:2;stroke-linecap:round;stroke-linejoin:round;stroke-miterlimit:4;stroke-dasharray:none;stroke-opacity:1"
         d="m 50,116.99999 h 140 v 140 H 50 Z"
         id="path858" />
    </g>
    <text
       id="text831"
       y="253.90956"
       x="52.172729"
       style="font-style:normal;font-variant:normal;font-weight:normal;font-stretch:normal;font-size:7.90784836px;line-height:125%;font-family:'Bitstream Vera Sans';-inkscape-font-specification:'Bitstream Vera Sans, Normal';font-variant-ligatures:normal;font-variant-caps:normal;font-variant-numeric:normal;font-feature-settings:normal;text-align:start;letter-spacing:0px;word-spacing:0px;writing-mode:lr-tb;text-anchor:start;display:none;fill:#000000;fill-opacity:1;stroke:none;stroke-width:0.19769619px;stroke-linecap:butt;stroke-linejoin:miter;stroke-opacity:1"
       xml:space="preserve"><tspan
         style="font-style:normal;font-variant:normal;font-weight:normal;font-stretch:normal;font-size:7.90784836px;font-family:'Bitstream Vera Sans';-inkscape-font-specification:'Bitstream Vera Sans, Normal';font-variant-ligatures:normal;font-variant-caps:normal;font-variant-numeric:normal;font-feature-settings:normal;text-align:start;writing-mode:lr-tb;text-anchor:start;stroke-width:0.19769619px"
         y="253.90956"
         x="52.172729"
         id="tspan829">Yet Another Photo Album Web App</tspan></text>
    <text
       transform="scale(1.1996791,0.83355623)"
       id="text827"
       y="164.40118"
       x="44.229042"
       style="font-style:normal;font-weight:normal;font-size:27.86751175px;line-height:125%;font-family:sans-serif;letter-spacing:0px;word-spacing:0px;display:none;fill:#000000;fill-opacity:1;stroke:none;stroke-width:0.69668782px;stroke-linecap:butt;stroke-linejoin:miter;stroke-opacity:1"
       xml:space="preserve"><tspan
         style="font-style:normal;font-variant:normal;font-weight:normal;font-stretch:normal;font-size:27.86751175px;font-family:'Bitstream Vera Sans';-inkscape-font-specification:'Bitstream Vera Sans, Normal';font-variant-ligatures:normal;font-variant-caps:normal;font-variant-numeric:normal;font-feature-settings:normal;text-align:start;writing-mode:lr-tb;text-anchor:start;stroke-width:0.69668782px"
         y="164.40118"
         x="44.229042"
         id="tspan825">YAPAWA</tspan></text>
  </g>
</svg>
